<?xml version="1.0" standalone="yes"?>

<svg version="1.1" viewBox="0.0 0.0 208.54068241469815 100.0" fill="none" stroke="none" stroke-linecap="square" stroke-miterlimit="10" xmlns="http://www.w3.org/2000/svg" xmlns:xlink="http://www.w3.org/1999/xlink"><clipPath id="p.0"><path d="m0 0l208.54068 0l0 100.0l-208.54068 0l0 -100.0z" clip-rule="nonzero"></path></clipPath><g clip-path="url(#p.0)"><path fill="#000000" fill-opacity="0.0" d="m0 0l208.54068 0l0 100.0l-208.54068 0z" fill-rule="nonzero"></path><path fill="#000000" fill-opacity="0.0" d="m-26.585302 3.6850393l288.22046 0l0 92.62992l-288.22046 0z" fill-rule="nonzero"></path><path fill="#999999" d="m27.68786 52.260036l-6.421875 0l0 11.625l-3.71875 0l0 -11.625l-4.796874 0l0 -3.6875l4.796874 0l0 -5.0l3.71875 0l0 5.0l6.421875 0l0 3.6875zm6.353838 -6.828125l-3.687502 0l0 -3.328125l3.687502 0l0 3.328125zm0 18.453125l-3.687502 0l0 -15.3125l3.687502 0l0 15.3125zm20.56511 0l-3.671875 0l0 -8.5q0 -0.71875 -0.25 -1.28125q-0.25 -0.578125 -0.671875 -0.984375q-0.421875 -0.421875 -1.0 -0.640625q-0.578125 -0.21875 -1.234375 -0.21875l-6.453125 0l0 11.625l-3.671875 0l0 -13.484375q0 -0.375 0.140625 -0.703125q0.140625 -0.34375 0.390625 -0.59375q0.25 -0.25 0.59375 -0.390625q0.34375 -0.140625 0.71875 -0.140625l8.296875 0q0.703125 0 1.46875 0.15625q0.78125 0.15625 1.53125 0.515625q0.765625 0.34375 1.4375 0.875q0.6875 0.53125 1.21875 1.296875q0.53125 0.75 0.84375 1.734375q0.3125 0.984375 0.3125 2.234375l0 8.5zm20.342724 1.4687462q0 0.953125 -0.25 1.703125q-0.234375 0.765625 -0.640625 1.328125q-0.390625 0.578125 -0.921875 0.984375q-0.515625 0.40625 -1.09375 0.65625q-0.5625 0.265625 -1.15625 0.375q-0.578125 0.125 -1.09375 0.125l-6.640621 0l0 -3.6875l6.640621 0q0.734375 0 1.09375 -0.390625q0.375 -0.375 0.375 -1.09375l0 -16.781246l3.6875 0l0 16.781246zm-5.15625 -1.4687462l-6.640621 0q-0.796875 0 -1.703125 -0.265625q-0.890625 -0.265625 -1.671875 -0.875q-0.78125 -0.625 -1.296875 -1.609375q-0.5 -0.984375 -0.5 -2.421875l0 -10.140625l3.6875 0l0 10.140625q0 0.71875 0.375 1.109375q0.390625 0.375 1.140625 0.375l6.609371 0l0 3.6875z" fill-rule="nonzero"></path><path fill="#37474f" d="m109.836494 63.885036l-4.734375 0l0 -15.421875l-8.328125 14.640625q-0.296875 0.5625 -0.859375 0.84375q-0.546875 0.2968712 -1.171875 0.2968712q-0.625 0 -1.15625 -0.2968712q-0.53125 -0.28125 -0.828125 -0.84375l-8.375 -14.640625l0 15.421875l-4.6875 0l0 -23.90625q0 -0.8125 0.46875 -1.4375q0.484375 -0.640625 1.265625 -0.859375q0.375 -0.078125 0.75 -0.046875q0.375 0.015625 0.734375 0.15625q0.359375 0.125 0.640625 0.375q0.296875 0.25 0.484375 0.59375l10.703125 18.578125l10.6875 -18.578125q0.421875 -0.6875 1.15625 -0.96875q0.734375 -0.296875 1.515625 -0.109375q0.765625 0.21875 1.25 0.859375q0.484375 0.625 0.484375 1.4375l0 23.90625zm29.565315 0l-21.421883 0q-0.5 0 -0.9375 -0.171875q-0.4375 -0.1875 -0.75 -0.5q-0.3125 -0.328125 -0.5 -0.75q-0.171875 -0.4375 -0.171875 -0.9375l0 -23.546875l4.6875 0l0 21.203125l19.093758 0l0 4.703125z" fill-rule="nonzero"></path></g></svg>

